# Blender 5.0.0
# www.blender.org
mtllib Tree.mtl
o New_World__13_-63_-46_to_17_319_-42
v -0.358310 0.428778 -0.354582
v -0.358310 0.428778 -0.211725
v -0.358310 0.571635 -0.211725
v -0.358310 0.571635 -0.354582
v -0.215453 0.428778 -0.211725
v -0.215453 0.428778 -0.354582
v -0.215453 0.571635 -0.354582
v -0.215453 0.571635 -0.211725
v -0.358310 0.428778 -0.068868
v -0.358310 0.571635 -0.068868
v -0.215453 0.428778 -0.068868
v -0.215453 0.571635 -0.068868
v -0.358310 0.714495 -0.068868
v -0.358310 0.714495 -0.211725
v -0.215453 0.714495 -0.211725
v -0.215453 0.714495 -0.068868
v -0.358310 0.428778 0.073989
v -0.358310 0.571635 0.073989
v -0.215453 0.428778 0.073989
v -0.215453 0.571635 0.073989
v -0.358310 0.714495 0.073989
v -0.215453 0.714495 0.073989
v -0.358310 0.428778 0.216846
v -0.358310 0.571635 0.216846
v -0.215453 0.428778 0.216846
v -0.215453 0.571635 0.216846
v -0.358310 0.714495 0.216846
v -0.215453 0.714495 0.216846
v -0.072596 0.428778 -0.211725
v -0.072596 0.428778 -0.354582
v -0.072596 0.571635 -0.354582
v -0.072596 0.571635 -0.211725
v -0.215453 0.714495 -0.354582
v -0.072596 0.714495 -0.354582
v -0.072596 0.714495 -0.211725
v -0.072596 0.428778 -0.068868
v -0.072596 0.571635 -0.068868
v -0.072596 0.714495 -0.068868
v -0.215453 0.857345 -0.068868
v -0.215453 0.857345 -0.211725
v -0.072596 0.857345 -0.211725
v -0.072596 0.857345 -0.068868
v -0.072596 0.428778 0.073989
v -0.072596 0.571635 0.073989
v -0.072596 0.714495 0.073989
v -0.215453 0.857345 0.073989
v -0.072596 0.857345 0.073989
v -0.215453 1.000205 0.073989
v -0.215453 1.000205 -0.068868
v -0.072596 1.000205 -0.068868
v -0.072596 1.000205 0.073989
v -0.072596 0.428778 0.216846
v -0.072596 0.571635 0.216846
v -0.072596 0.714495 0.216846
v -0.215453 0.428778 0.359703
v -0.215453 0.571635 0.359703
v -0.072596 0.428778 0.359703
v -0.072596 0.571635 0.359703
v -0.215453 0.714495 0.359703
v -0.072596 0.714495 0.359703
v 0.070261 0.428778 -0.211725
v 0.070261 0.428778 -0.354582
v 0.070261 0.571635 -0.354582
v 0.070261 0.571635 -0.211725
v 0.070261 0.714495 -0.354582
v 0.070261 0.714495 -0.211725
v 0.070261 0.428778 -0.068868
v 0.070261 0.571635 -0.068868
v 0.070261 0.714495 -0.068868
v 0.070261 0.857345 -0.211725
v 0.070261 0.857345 -0.068868
v -0.072596 1.000205 -0.211725
v 0.070261 1.000205 -0.211725
v 0.070261 1.000205 -0.068868
v -0.072596 0.000206 -0.068868
v -0.072596 0.000206 0.073989
v -0.072596 0.143064 0.073989
v -0.072596 0.143064 -0.068868
v 0.070261 0.000206 0.073989
v 0.070261 0.000206 -0.068868
v 0.070261 0.143064 -0.068868
v 0.070261 0.143064 0.073989
v -0.072596 0.285921 0.073989
v -0.072596 0.285921 -0.068868
v 0.070261 0.285921 -0.068868
v 0.070261 0.285921 0.073989
v 0.070261 0.428778 0.073989
v 0.070261 0.571635 0.073989
v 0.070261 0.714495 0.073989
v 0.070261 0.857345 0.073989
v 0.070261 1.000205 0.073989
v 0.070261 0.428778 0.216846
v 0.070261 0.571635 0.216846
v 0.070261 0.714495 0.216846
v -0.072596 0.857345 0.216846
v 0.070261 0.857345 0.216846
v -0.072596 1.000205 0.216846
v 0.070261 1.000205 0.216846
v 0.070261 0.428778 0.359703
v 0.070261 0.571635 0.359703
v 0.070261 0.714495 0.359703
v 0.213118 0.428778 -0.211725
v 0.213118 0.428778 -0.354582
v 0.213118 0.571635 -0.354582
v 0.213118 0.571635 -0.211725
v 0.213118 0.714495 -0.354582
v 0.213118 0.714495 -0.211725
v 0.213118 0.428778 -0.068868
v 0.213118 0.571635 -0.068868
v 0.213118 0.714495 -0.068868
v 0.213118 0.428778 0.073989
v 0.213118 0.571635 0.073989
v 0.213118 0.714495 0.073989
v 0.213118 0.857345 -0.068868
v 0.213118 0.857345 0.073989
v 0.213118 1.000205 -0.068868
v 0.213118 1.000205 0.073989
v 0.213118 0.428778 0.216846
v 0.213118 0.571635 0.216846
v 0.213118 0.714495 0.216846
v 0.213118 0.857345 0.216846
v 0.213118 0.428778 0.359703
v 0.213118 0.571635 0.359703
v 0.213118 0.714495 0.359703
v 0.355975 0.428778 -0.211725
v 0.355975 0.428778 -0.354582
v 0.355975 0.571635 -0.354582
v 0.355975 0.571635 -0.211725
v 0.355975 0.714495 -0.354582
v 0.355975 0.714495 -0.211725
v 0.355975 0.428778 -0.068868
v 0.355975 0.571635 -0.068868
v 0.355975 0.714495 -0.068868
v 0.355975 0.428778 0.073989
v 0.355975 0.571635 0.073989
v 0.355975 0.714495 0.073989
v 0.355975 0.428778 0.216846
v 0.355975 0.571635 0.216846
v 0.355975 0.714495 0.216846
vn -1.0000 -0.0000 -0.0000
vn -0.0000 -1.0000 -0.0000
vn -0.0000 -0.0000 -1.0000
vn 1.0000 -0.0000 -0.0000
vn -0.0000 -0.0000 1.0000
vn -0.0000 1.0000 -0.0000
vt 0.368164 0.983398
vt 0.368164 0.999023
vt 0.352539 0.999023
vt 0.352539 0.983398
vt 0.370117 0.983398
vt 0.370117 0.999023
vt 0.385742 0.999023
vt 0.385742 0.983398
vt 0.930664 0.983398
vt 0.930664 0.999023
vt 0.915039 0.999023
vt 0.915039 0.983398
s 1
usemtl Oak_Log
f 76/1/1 77/2/1 78/3/1 75/4/1
f 76/5/2 75/6/2 80/7/2 79/8/2
f 75/1/3 78/2/3 81/3/3 80/4/3
f 79/4/4 80/1/4 81/2/4 82/3/4
f 76/4/5 79/1/5 82/2/5 77/3/5
f 77/1/1 83/2/1 84/3/1 78/4/1
f 78/1/3 84/2/3 85/3/3 81/4/3
f 82/4/4 81/1/4 85/2/4 86/3/4
f 77/4/5 82/1/5 86/2/5 83/3/5
f 83/1/1 43/2/1 36/3/1 84/4/1
f 84/1/3 36/2/3 67/3/3 85/4/3
f 86/4/4 85/1/4 67/2/4 87/3/4
f 83/4/5 86/1/5 87/2/5 43/3/5
f 43/1/1 44/2/1 37/3/1 36/4/1
f 36/1/3 37/2/3 68/3/3 67/4/3
f 87/4/4 67/1/4 68/2/4 88/3/4
f 43/4/5 87/1/5 88/2/5 44/3/5
f 44/1/1 45/2/1 38/3/1 37/4/1
f 37/1/3 38/2/3 69/3/3 68/4/3
f 88/4/4 68/1/4 69/2/4 89/3/4
f 44/4/5 88/1/5 89/2/5 45/3/5
f 45/1/1 47/2/1 42/3/1 38/4/1
f 38/1/3 42/2/3 71/3/3 69/4/3
f 89/4/4 69/1/4 71/2/4 90/3/4
f 47/5/6 90/8/6 71/7/6 42/6/6
f 45/4/5 89/1/5 90/2/5 47/3/5
f 2/9/1 3/10/1 4/11/1 1/12/1
f 2/12/2 1/11/2 6/10/2 5/9/2
f 1/9/3 4/10/3 7/11/3 6/12/3
f 5/12/4 6/9/4 7/10/4 8/11/4
f 3/12/6 8/9/6 7/10/6 4/11/6
f 9/9/1 10/10/1 3/11/1 2/12/1
f 9/12/2 2/11/2 5/10/2 11/9/2
f 2/9/3 3/10/3 8/11/3 5/12/3
f 11/12/4 5/9/4 8/10/4 12/11/4
f 9/12/5 11/9/5 12/10/5 10/11/5
f 10/9/1 13/10/1 14/11/1 3/12/1
f 10/12/2 3/11/2 8/10/2 12/9/2
f 3/9/3 14/10/3 15/11/3 8/12/3
f 13/12/6 16/9/6 15/10/6 14/11/6
f 10/12/5 12/9/5 16/10/5 13/11/5
f 17/9/1 18/10/1 10/11/1 9/12/1
f 17/12/2 9/11/2 11/10/2 19/9/2
f 18/12/6 20/9/6 12/10/6 10/11/6
f 18/9/1 21/10/1 13/11/1 10/12/1
f 21/12/6 22/9/6 16/10/6 13/11/6
f 18/12/5 20/9/5 22/10/5 21/11/5
f 23/9/1 24/10/1 18/11/1 17/12/1
f 23/12/2 17/11/2 19/10/2 25/9/2
f 17/9/3 18/10/3 20/11/3 19/12/3
f 24/12/6 26/9/6 20/10/6 18/11/6
f 23/12/5 25/9/5 26/10/5 24/11/5
f 24/9/1 27/10/1 21/11/1 18/12/1
f 27/12/6 28/9/6 22/10/6 21/11/6
f 24/12/5 26/9/5 28/10/5 27/11/5
f 5/12/2 6/11/2 30/10/2 29/9/2
f 6/9/3 7/10/3 31/11/3 30/12/3
f 29/12/4 30/9/4 31/10/4 32/11/4
f 8/12/6 32/9/6 31/10/6 7/11/6
f 8/9/1 15/10/1 33/11/1 7/12/1
f 7/9/3 33/10/3 34/11/3 31/12/3
f 32/12/4 31/9/4 34/10/4 35/11/4
f 15/12/6 35/9/6 34/10/6 33/11/6
f 8/12/5 32/9/5 35/10/5 15/11/5
f 11/12/2 5/11/2 29/10/2 36/9/2
f 5/9/3 8/10/3 32/11/3 29/12/3
f 36/12/4 29/9/4 32/10/4 37/11/4
f 12/9/1 16/10/1 15/11/1 8/12/1
f 12/12/2 8/11/2 32/10/2 37/9/2
f 37/12/4 32/9/4 35/10/4 38/11/4
f 12/12/5 37/9/5 38/10/5 16/11/5
f 16/9/1 39/10/1 40/11/1 15/12/1
f 16/12/2 15/11/2 35/10/2 38/9/2
f 15/9/3 40/10/3 41/11/3 35/12/3
f 39/12/6 42/9/6 41/10/6 40/11/6
f 16/12/5 38/9/5 42/10/5 39/11/5
f 19/9/1 20/10/1 12/11/1 11/12/1
f 19/12/2 11/11/2 36/10/2 43/9/2
f 11/9/3 12/10/3 37/11/3 36/12/3
f 20/12/6 44/9/6 37/10/6 12/11/6
f 20/9/1 22/10/1 16/11/1 12/12/1
f 20/12/5 44/9/5 45/10/5 22/11/5
f 22/9/1 46/10/1 39/11/1 16/12/1
f 22/12/2 16/11/2 38/10/2 45/9/2
f 46/12/6 47/9/6 42/10/6 39/11/6
f 22/12/5 45/9/5 47/10/5 46/11/5
f 46/9/1 48/10/1 49/11/1 39/12/1
f 39/9/3 49/10/3 50/11/3 42/12/3
f 48/12/6 51/9/6 50/10/6 49/11/6
f 46/12/5 47/9/5 51/10/5 48/11/5
f 25/9/1 26/10/1 20/11/1 19/12/1
f 25/12/2 19/11/2 43/10/2 52/9/2
f 19/9/3 20/10/3 44/11/3 43/12/3
f 25/12/5 52/9/5 53/10/5 26/11/5
f 26/9/1 28/10/1 22/11/1 20/12/1
f 26/12/2 20/11/2 44/10/2 53/9/2
f 28/12/6 54/9/6 45/10/6 22/11/6
f 26/12/5 53/9/5 54/10/5 28/11/5
f 55/9/1 56/10/1 26/11/1 25/12/1
f 55/12/2 25/11/2 52/10/2 57/9/2
f 57/12/4 52/9/4 53/10/4 58/11/4
f 56/12/6 58/9/6 53/10/6 26/11/6
f 55/12/5 57/9/5 58/10/5 56/11/5
f 56/9/1 59/10/1 28/11/1 26/12/1
f 58/12/4 53/9/4 54/10/4 60/11/4
f 59/12/6 60/9/6 54/10/6 28/11/6
f 56/12/5 58/9/5 60/10/5 59/11/5
f 29/12/2 30/11/2 62/10/2 61/9/2
f 30/9/3 31/10/3 63/11/3 62/12/3
f 61/12/4 62/9/4 63/10/4 64/11/4
f 32/12/6 64/9/6 63/10/6 31/11/6
f 29/12/5 61/9/5 64/10/5 32/11/5
f 31/9/3 34/10/3 65/11/3 63/12/3
f 64/12/4 63/9/4 65/10/4 66/11/4
f 35/12/6 66/9/6 65/10/6 34/11/6
f 36/12/2 29/11/2 61/10/2 67/9/2
f 37/12/2 32/11/2 64/10/2 68/9/2
f 32/9/3 35/10/3 66/11/3 64/12/3
f 38/9/1 42/10/1 41/11/1 35/12/1
f 38/12/2 35/11/2 66/10/2 69/9/2
f 35/9/3 41/10/3 70/11/3 66/12/3
f 69/12/4 66/9/4 70/10/4 71/11/4
f 42/9/1 50/10/1 72/11/1 41/12/1
f 42/12/2 41/11/2 70/10/2 71/9/2
f 41/9/3 72/10/3 73/11/3 70/12/3
f 71/12/4 70/9/4 73/10/4 74/11/4
f 50/12/6 74/9/6 73/10/6 72/11/6
f 47/9/1 51/10/1 50/11/1 42/12/1
f 42/9/3 50/10/3 74/11/3 71/12/3
f 90/12/4 71/9/4 74/10/4 91/11/4
f 51/12/6 91/9/6 74/10/6 50/11/6
f 47/12/5 90/9/5 91/10/5 51/11/5
f 52/9/1 53/10/1 44/11/1 43/12/1
f 52/12/2 43/11/2 87/10/2 92/9/2
f 92/12/4 87/9/4 88/10/4 93/11/4
f 52/12/5 92/9/5 93/10/5 53/11/5
f 53/9/1 54/10/1 45/11/1 44/12/1
f 53/12/2 44/11/2 88/10/2 93/9/2
f 53/12/5 93/9/5 94/10/5 54/11/5
f 54/9/1 95/10/1 47/11/1 45/12/1
f 54/12/2 45/11/2 89/10/2 94/9/2
f 94/12/4 89/9/4 90/10/4 96/11/4
f 95/12/6 96/9/6 90/10/6 47/11/6
f 54/12/5 94/9/5 96/10/5 95/11/5
f 95/9/1 97/10/1 51/11/1 47/12/1
f 96/12/4 90/9/4 91/10/4 98/11/4
f 97/12/6 98/9/6 91/10/6 51/11/6
f 95/12/5 96/9/5 98/10/5 97/11/5
f 57/12/2 52/11/2 92/10/2 99/9/2
f 99/12/4 92/9/4 93/10/4 100/11/4
f 57/12/5 99/9/5 100/10/5 58/11/5
f 58/12/2 53/11/2 93/10/2 100/9/2
f 100/12/4 93/9/4 94/10/4 101/11/4
f 60/12/6 101/9/6 94/10/6 54/11/6
f 58/12/5 100/9/5 101/10/5 60/11/5
f 61/12/2 62/11/2 103/10/2 102/9/2
f 62/9/3 63/10/3 104/11/3 103/12/3
f 64/12/6 105/9/6 104/10/6 63/11/6
f 61/12/5 102/9/5 105/10/5 64/11/5
f 63/9/3 65/10/3 106/11/3 104/12/3
f 105/12/4 104/9/4 106/10/4 107/11/4
f 66/12/6 107/9/6 106/10/6 65/11/6
f 64/12/5 105/9/5 107/10/5 66/11/5
f 67/9/1 68/10/1 64/11/1 61/12/1
f 67/12/2 61/11/2 102/10/2 108/9/2
f 108/12/4 102/9/4 105/10/4 109/11/4
f 68/9/1 69/10/1 66/11/1 64/12/1
f 68/12/2 64/11/2 105/10/2 109/9/2
f 69/12/6 110/9/6 107/10/6 66/11/6
f 87/12/2 67/11/2 108/10/2 111/9/2
f 67/9/3 68/10/3 109/11/3 108/12/3
f 111/12/4 108/9/4 109/10/4 112/11/4
f 87/12/5 111/9/5 112/10/5 88/11/5
f 88/12/2 68/11/2 109/10/2 112/9/2
f 68/9/3 69/10/3 110/11/3 109/12/3
f 112/12/4 109/9/4 110/10/4 113/11/4
f 89/12/2 69/11/2 110/10/2 113/9/2
f 69/9/3 71/10/3 114/11/3 110/12/3
f 113/12/4 110/9/4 114/10/4 115/11/4
f 90/12/2 71/11/2 114/10/2 115/9/2
f 71/9/3 74/10/3 116/11/3 114/12/3
f 115/12/4 114/9/4 116/10/4 117/11/4
f 91/12/6 117/9/6 116/10/6 74/11/6
f 90/12/5 115/9/5 117/10/5 91/11/5
f 92/12/2 87/11/2 111/10/2 118/9/2
f 118/12/4 111/9/4 112/10/4 119/11/4
f 93/12/6 119/9/6 112/10/6 88/11/6
f 92/12/5 118/9/5 119/10/5 93/11/5
f 93/9/1 94/10/1 89/11/1 88/12/1
f 88/9/3 89/10/3 113/11/3 112/12/3
f 119/12/4 112/9/4 113/10/4 120/11/4
f 93/12/5 119/9/5 120/10/5 94/11/5
f 94/12/2 89/11/2 113/10/2 120/9/2
f 89/9/3 90/10/3 115/11/3 113/12/3
f 120/12/4 113/9/4 115/10/4 121/11/4
f 96/12/6 121/9/6 115/10/6 90/11/6
f 94/12/5 120/9/5 121/10/5 96/11/5
f 99/12/2 92/11/2 118/10/2 122/9/2
f 122/12/4 118/9/4 119/10/4 123/11/4
f 100/12/6 123/9/6 119/10/6 93/11/6
f 99/12/5 122/9/5 123/10/5 100/11/5
f 123/12/4 119/9/4 120/10/4 124/11/4
f 101/12/6 124/9/6 120/10/6 94/11/6
f 100/12/5 123/9/5 124/10/5 101/11/5
f 102/9/1 105/10/1 104/11/1 103/12/1
f 102/12/2 103/11/2 126/10/2 125/9/2
f 103/9/3 104/10/3 127/11/3 126/12/3
f 125/12/4 126/9/4 127/10/4 128/11/4
f 105/12/6 128/9/6 127/10/6 104/11/6
f 104/9/3 106/10/3 129/11/3 127/12/3
f 128/12/4 127/9/4 129/10/4 130/11/4
f 107/12/6 130/9/6 129/10/6 106/11/6
f 105/12/5 128/9/5 130/10/5 107/11/5
f 108/12/2 102/11/2 125/10/2 131/9/2
f 102/9/3 105/10/3 128/11/3 125/12/3
f 131/12/4 125/9/4 128/10/4 132/11/4
f 109/12/6 132/9/6 128/10/6 105/11/6
f 108/12/5 131/9/5 132/10/5 109/11/5
f 109/9/1 110/10/1 107/11/1 105/12/1
f 132/12/4 128/9/4 130/10/4 133/11/4
f 110/12/6 133/9/6 130/10/6 107/11/6
f 109/12/5 132/9/5 133/10/5 110/11/5
f 111/12/2 108/11/2 131/10/2 134/9/2
f 134/12/4 131/9/4 132/10/4 135/11/4
f 112/12/6 135/9/6 132/10/6 109/11/6
f 111/12/5 134/9/5 135/10/5 112/11/5
f 135/12/4 132/9/4 133/10/4 136/11/4
f 113/12/6 136/9/6 133/10/6 110/11/6
f 112/12/5 135/9/5 136/10/5 113/11/5
f 118/12/2 111/11/2 134/10/2 137/9/2
f 137/12/4 134/9/4 135/10/4 138/11/4
f 119/12/6 138/9/6 135/10/6 112/11/6
f 118/12/5 137/9/5 138/10/5 119/11/5
f 138/12/4 135/9/4 136/10/4 139/11/4
f 120/12/6 139/9/6 136/10/6 113/11/6
f 119/12/5 138/9/5 139/10/5 120/11/5
